<?xml version="1.0" encoding="UTF-8" standalone="no"?>
<!-- Created with Inkscape (http://www.inkscape.org/) -->

<svg
   width="122.81421mm"
   height="41.480019mm"
   viewBox="0 0 122.81421 41.480019"
   version="1.1"
   id="svg1"
   xml:space="preserve"
   xmlns="http://www.w3.org/2000/svg"
   xmlns:svg="http://www.w3.org/2000/svg"><defs
     id="defs1" /><g
     id="layer1"
     transform="translate(-9.1907662,-98.609175)"><g
       id="g1"
       transform="matrix(0.20333342,0,0,0.20333342,1.7638103,78.542195)"><g
         stroke="#000000"
         fill="none"
         id="g106"><g
           stroke-width="4"
           id="g59"><rect
             height="40"
             width="40"
             y="100.69"
             x="38.526001"
             id="rect32" /><rect
             height="40"
             width="40"
             y="100.69"
             x="78.526001"
             id="rect33" /><rect
             height="40"
             width="40"
             y="100.69"
             x="118.53"
             id="rect34" /><rect
             height="40"
             width="40"
             y="100.69"
             x="158.53"
             id="rect35" /><rect
             height="40"
             width="40"
             y="100.69"
             x="198.53"
             id="rect36" /><rect
             height="40"
             width="40"
             y="100.69"
             x="238.53"
             id="rect37" /><rect
             height="40"
             width="40"
             y="100.69"
             x="278.53"
             id="rect38" /><rect
             height="40"
             width="40"
             y="100.69"
             x="318.53"
             id="rect39" /><rect
             height="40"
             width="40"
             y="100.69"
             x="358.53"
             id="rect40" /><rect
             height="40"
             width="40"
             y="100.69"
             x="398.53"
             id="rect41" /><rect
             height="40"
             width="40"
             y="100.69"
             x="438.53"
             id="rect42" /><rect
             height="40"
             width="40"
             y="100.69"
             x="478.53"
             id="rect43" /><rect
             height="40"
             width="40"
             y="100.69"
             x="518.53003"
             id="rect44" /><rect
             height="40"
             width="40"
             y="100.69"
             x="558.53003"
             id="rect45" /><rect
             height="40"
             width="40"
             y="100.69"
             x="598.53003"
             id="rect46" /><rect
             height="40"
             width="60"
             y="140.69"
             x="38.526001"
             id="rect47" /><rect
             height="40"
             width="40"
             y="140.69"
             x="98.526001"
             id="rect48" /><rect
             height="40"
             width="40"
             y="140.69"
             x="138.53"
             id="rect49" /><rect
             height="40"
             width="40"
             y="140.69"
             x="178.53"
             id="rect50" /><rect
             height="40"
             width="40"
             y="140.69"
             x="218.53"
             id="rect51" /><rect
             height="40"
             width="40"
             y="140.69"
             x="258.53"
             id="rect52" /><rect
             height="40"
             width="40"
             y="140.69"
             x="298.53"
             id="rect53" /><rect
             height="40"
             width="40"
             y="140.69"
             x="338.53"
             id="rect54" /><rect
             height="40"
             width="40"
             y="140.69"
             x="378.53"
             id="rect55" /><rect
             height="40"
             width="40"
             y="140.69"
             x="418.53"
             id="rect56" /><rect
             height="40"
             width="40"
             y="140.69"
             x="458.53"
             id="rect57" /><rect
             height="40"
             width="40"
             y="140.69"
             x="498.53"
             id="rect58" /><rect
             height="40"
             width="40"
             y="140.69"
             x="538.53003"
             id="rect59" /></g><path
           d="m 1003.4,220.18 v 71.2 h -35.56 v 71.21 h 142.36 v -71.21 -71.2 z"
           transform="matrix(0.56176,0,0,0.56176,14.838,17)"
           stroke-width="7.1205"
           id="path59" /><g
           stroke-width="4"
           id="g105"><rect
             height="40"
             width="60"
             y="180.69"
             x="38.526001"
             id="rect60" /><rect
             height="40"
             width="40"
             y="180.69"
             x="118.53"
             id="rect61" /><rect
             height="40"
             width="40"
             y="180.69"
             x="158.53"
             id="rect62" /><rect
             height="40"
             width="40"
             y="180.69"
             x="198.53"
             id="rect63" /><rect
             height="40"
             width="40"
             y="180.69"
             x="238.53"
             id="rect64" /><rect
             height="40"
             width="40"
             y="180.69"
             x="278.53"
             id="rect65" /><rect
             height="40"
             width="40"
             y="180.69"
             x="318.53"
             id="rect66" /><rect
             height="40"
             width="40"
             y="180.69"
             x="358.53"
             id="rect67" /><rect
             height="40"
             width="40"
             y="180.69"
             x="398.53"
             id="rect68" /><rect
             height="40"
             width="40"
             y="180.69"
             x="438.53"
             id="rect69" /><rect
             height="40"
             width="40"
             y="180.69"
             x="478.53"
             id="rect70" /><rect
             height="40"
             width="40"
             y="180.69"
             x="518.53003"
             id="rect71" /><rect
             height="40"
             width="20"
             y="180.69"
             x="98.526001"
             id="rect72" /><rect
             height="40"
             width="40"
             y="220.69"
             x="138.53"
             id="rect73" /><rect
             height="40"
             width="40"
             y="220.69"
             x="178.53"
             id="rect74" /><rect
             height="40"
             width="40"
             y="220.69"
             x="218.53"
             id="rect75" /><rect
             height="40"
             width="40"
             y="220.69"
             x="258.53"
             id="rect76" /><rect
             height="40"
             width="40"
             y="220.69"
             x="298.53"
             id="rect77" /><rect
             height="40"
             width="40"
             y="220.69"
             x="338.53"
             id="rect78" /><rect
             height="40"
             width="40"
             y="220.69"
             x="378.53"
             id="rect79" /><rect
             height="40"
             width="40"
             y="220.69"
             x="418.53"
             id="rect80" /><rect
             height="40"
             width="40"
             y="220.69"
             x="458.53"
             id="rect81" /><rect
             height="40"
             width="40"
             y="220.69"
             x="498.53"
             id="rect82" /><rect
             height="40"
             width="100"
             y="220.69"
             x="538.53003"
             id="rect83" /><rect
             height="40"
             width="100"
             y="220.69"
             x="38.526001"
             id="rect84" /><rect
             height="40"
             width="40"
             y="260.69"
             x="38.526001"
             id="rect85" /><rect
             height="40"
             width="60"
             y="260.69"
             x="78.526001"
             id="rect86" /><rect
             height="40"
             width="60"
             y="260.69"
             x="138.53"
             id="rect87" /><rect
             height="40"
             width="240"
             y="260.69"
             x="198.53"
             id="rect88" /><rect
             height="40"
             width="60"
             y="260.69"
             x="438.53"
             id="rect89" /><rect
             height="40"
             width="60"
             y="260.69"
             x="498.53"
             id="rect90" /><rect
             height="40"
             width="40"
             y="260.69"
             x="558.53003"
             id="rect91" /><rect
             height="40"
             width="40"
             y="260.69"
             x="598.53003"
             id="rect92" /></g></g></g></g></svg>
